<svg width="62" height="62" viewBox="0 0 62 62" fill="none" xmlns="http://www.w3.org/2000/svg">
<rect width="62" height="62" fill="#E1DCD2"/>
<path fill-rule="evenodd" clip-rule="evenodd" d="M33.168 24.5H21.2513C20.653 24.5 20.168 24.015 20.168 23.4167C20.168 22.8183 20.653 22.3333 21.2513 22.3333H33.168C33.168 21.1367 34.138 20.1667 35.3346 20.1667H37.5013C38.6979 20.1667 39.668 21.1367 39.668 22.3333H40.7513C41.3496 22.3333 41.8346 22.8183 41.8346 23.4167C41.8346 24.015 41.3496 24.5 40.7513 24.5H39.668C39.668 25.6966 38.6979 26.6667 37.5013 26.6667H35.3346C34.138 26.6667 33.168 25.6966 33.168 24.5ZM37.5013 22.3333H35.3346V24.5H37.5013V23.4167V22.3333ZM40.7513 29.9167H31.0013C31.0013 28.72 30.0313 27.75 28.8346 27.75H26.668C25.4714 27.75 24.5013 28.72 24.5013 29.9167H21.2513C20.653 29.9167 20.168 30.4017 20.168 31C20.168 31.5983 20.653 32.0833 21.2513 32.0833H24.5013C24.5013 33.2799 25.4714 34.25 26.668 34.25H28.8346C30.0313 34.25 31.0013 33.2799 31.0013 32.0833H40.7513C41.3496 32.0833 41.8346 31.5983 41.8346 31C41.8346 30.4017 41.3496 29.9167 40.7513 29.9167ZM28.8346 29.9167H26.668V32.0833H28.8346V31V29.9167ZM40.7513 37.5H37.5013C37.5013 36.3034 36.5313 35.3333 35.3346 35.3333H33.168C31.9714 35.3333 31.0013 36.3034 31.0013 37.5H21.2513C20.653 37.5 20.168 37.985 20.168 38.5833C20.168 39.1816 20.653 39.6667 21.2513 39.6667H31.0013C31.0013 40.8633 31.9714 41.8333 33.168 41.8333H35.3346C36.5313 41.8333 37.5013 40.8633 37.5013 39.6667H40.7513C41.3496 39.6667 41.8346 39.1816 41.8346 38.5833C41.8346 37.985 41.3496 37.5 40.7513 37.5ZM35.3346 37.5H33.168V39.6667H35.3346V38.5833V37.5Z" fill="#231F20"/>
</svg>
