<?xml version="1.0" encoding="utf-8"?>
<!-- Generator: Adobe Illustrator 27.0.1, SVG Export Plug-In . SVG Version: 6.00 Build 0)  -->
<svg version="1.1" id="Layer_1" xmlns="http://www.w3.org/2000/svg" xmlns:xlink="http://www.w3.org/1999/xlink" x="0px" y="0px"
	 viewBox="0 0 84 84" style="enable-background:new 0 0 84 84;" xml:space="preserve">
<style type="text/css">
	.st0{fill:#FFFFFF;}
</style>
<g>
	<path class="st0" d="M13.4,47.4l-13,0.1v-2.6l5.9-0.1l-5.9-5.3v-3l5.4,4.9l7.7-5.1v3l-6,3.9l1.8,1.7h4.2L13.4,47.4z"/>
	<path class="st0" d="M13.6,34.5c-0.8,0.6-1.8,1-2.9,1.1S8.4,35.5,7.1,35S4.8,33.8,4,33s-1.3-1.7-1.4-2.8c-0.2-1-0.1-2.1,0.4-3.3
		c0.4-1.1,1.1-2,1.9-2.7c0.8-0.6,1.8-1,2.9-1.1s2.3,0.1,3.6,0.6s2.3,1.2,3.1,2s1.3,1.7,1.4,2.8c0.2,1,0.1,2.1-0.4,3.3
		C15.1,33,14.5,33.9,13.6,34.5z M11.8,33.1c1-0.2,1.7-0.9,2.1-1.9c0.4-1,0.3-2-0.3-2.8s-1.6-1.5-3.1-2.1s-2.8-0.8-3.7-0.5
		c-1,0.2-1.7,0.9-2.1,1.9s-0.3,2,0.3,2.8s1.6,1.5,3.1,2.1C9.5,33.1,10.8,33.3,11.8,33.1z"/>
	<path class="st0" d="M17.6,26.1L8.2,17l2.3-2.4L21,17.5l-6.8-6.6l1.7-1.7l9.4,9.1L23,20.5l-10.8-3l7.1,6.8L17.6,26.1z"/>
	<path class="st0" d="M26.8,16.5c-1.2-0.3-2.1-1.1-2.6-2.3l2.4-1c0.4,0.7,0.9,1.2,1.5,1.4s1.3,0.1,2.1-0.2c0.7-0.3,1.2-0.7,1.5-1.2
		s0.3-1,0-1.6c-0.2-0.4-0.5-0.7-0.9-0.8s-0.9-0.1-1.7,0l-2.4,0.4c-2.2,0.3-3.7-0.3-4.4-2C21.8,8,21.9,7,22.4,6s1.5-1.7,2.9-2.4
		C26.6,3,27.9,2.9,29,3.1c1.1,0.3,1.9,0.9,2.4,2l-2.4,1c-0.7-1.1-1.7-1.4-3-0.8c-0.7,0.3-1.1,0.7-1.4,1.1c-0.2,0.4-0.2,0.9,0,1.4
		c0.2,0.4,0.5,0.7,0.8,0.8c0.4,0.1,0.9,0.1,1.5,0L29,8.2c2.5-0.4,4.1,0.2,4.9,2c0.5,1.2,0.5,2.3-0.1,3.3c-0.5,1-1.5,1.9-3,2.5
		C29.3,16.6,28,16.8,26.8,16.5z"/>
	<path class="st0" d="M37.6,13.7l-1.2-11l-4.3,0.5l-0.2-2L43.1,0l0.2,2L39,2.4l1.2,11L37.6,13.7z"/>
	<path class="st0" d="M42.9,12.9l2.8-12.7L49,0.9l3,10.4L54.1,2l2.3,0.5l-2.8,12.7l-3.1-0.7L47.4,3.9l-2.1,9.6L42.9,12.9z"/>
	<path class="st0" d="M54.4,15.4L66.2,8l2.5,1.9l-4.1,13.3l-2.1-1.6l1-3.1l-4.3-3.3l-2.7,1.7L54.4,15.4z M60.8,14.1l3.2,2.4l1.8-5.6
		L60.8,14.1z M61.9,6.2l1.4-1.8l1.9,1.5l-1.4,1.8L61.9,6.2z M69.5,12l1.4-1.8l1.9,1.5l-1.4,1.8L69.5,12z"/>
	<path class="st0" d="M78.9,22.4c0.4,0.7,0.7,1.4,0.8,2c0.1,0.6,0.1,1.1-0.1,1.6c-0.2,0.8-0.8,1.4-1.6,1.9c-0.7,0.4-1.3,0.5-2,0.5
		c-0.7-0.1-1.3-0.4-1.8-0.9c0.1,0.5,0,1-0.2,1.4s-0.6,0.9-1.2,1.3l-1.9,1.4c-0.6,0.4-1,0.8-1.2,1.1l-1.3-2.3
		c0.2-0.3,0.6-0.7,1.2-1.1l1.3-0.9c0.4-0.3,0.7-0.5,0.9-0.7c0.2-0.2,0.3-0.4,0.4-0.7c0.1-0.2,0.1-0.5,0-0.7
		c-0.1-0.3-0.2-0.6-0.4-0.9l-1.1-1.9L65.9,26l-1.3-2.3L76,17.3L78.9,22.4z M73.6,24.9c0.2,0.4,0.4,0.6,0.6,0.8
		c0.2,0.2,0.4,0.3,0.7,0.4c0.4,0.1,0.9,0,1.4-0.3s0.8-0.6,0.9-0.9s0.2-0.5,0.1-0.8S77.2,23.4,77,23l-1.4-2.4l-3.4,1.9L73.6,24.9z"/>
	<path class="st0" d="M70.8,34.2c0.6-1,1.6-1.7,2.9-1.9l0.4,2.6c-0.8,0.2-1.4,0.5-1.7,1.1c-0.3,0.5-0.5,1.2-0.3,2.1
		c0.1,0.8,0.4,1.4,0.8,1.8c0.4,0.4,0.9,0.5,1.5,0.4c0.5-0.1,0.8-0.3,1-0.6s0.4-0.9,0.4-1.6l0.3-2.4c0.3-2.2,1.3-3.5,3.1-3.7
		c1.2-0.2,2.2,0.1,3,0.9c0.8,0.8,1.3,1.9,1.5,3.4s0.1,2.7-0.5,3.7c-0.5,1-1.4,1.6-2.5,1.8L80.2,39c1.3-0.3,1.8-1.2,1.6-2.7
		c-0.1-0.7-0.3-1.3-0.7-1.6c-0.3-0.3-0.8-0.5-1.3-0.4c-0.4,0.1-0.8,0.3-1,0.6s-0.4,0.8-0.4,1.4l-0.2,2.2C78,41,76.9,42.4,75,42.7
		c-1.3,0.2-2.3-0.1-3.2-0.9c-0.8-0.8-1.4-2-1.6-3.6C70,36.5,70.2,35.2,70.8,34.2z"/>
	<path class="st0" d="M71.2,45.9c0.7-0.8,1.6-1.3,2.7-1.5s2.3-0.2,3.7,0.1c1.4,0.3,2.5,0.8,3.4,1.5s1.5,1.5,1.8,2.5s0.4,2.1,0.1,3.3
		c-0.3,1.5-0.9,2.6-1.8,3.3s-2,1-3.2,0.9l0.6-2.6c0.7,0.1,1.3-0.1,1.7-0.4c0.5-0.4,0.8-0.9,0.9-1.6c0.2-1.1,0-2-0.6-2.7
		c-0.7-0.7-1.8-1.3-3.4-1.7s-2.9-0.4-3.8,0s-1.5,1.1-1.8,2.2c-0.2,0.8-0.1,1.4,0.1,2c0.3,0.5,0.8,0.9,1.5,1.2l-0.6,2.5
		c-1.2-0.4-2.1-1.1-2.6-2.2c-0.5-1.1-0.6-2.3-0.3-3.8C70,47.6,70.5,46.6,71.2,45.9z"/>
	<path class="st0" d="M71.7,59.6l-3.1-2l-3.3,5.2l-1.6-1l4.8-7.3l11,7.1l-4.7,7.2l-1.6-1l3.2-5l-3-1.9l-3,4.7l-1.6-1L71.7,59.6z"/>
	<path class="st0" d="M62.8,62.7l7.4,10.8l-2.7,1.9l-9.7-4.9l5.4,7.8l-2,1.4l-7.4-10.8l2.6-1.8l10,5.1L60.9,64L62.8,62.7z"/>
	<path class="st0" d="M51.1,69.4l3,10.7l4.2-1.2l0.5,1.9l-10.9,3.1L47.4,82l4.2-1.2l-3-10.7L51.1,69.4z"/>
	<path class="st0" d="M39.6,83.8c-0.8,0-1.5-0.2-2.1-0.4c-0.6-0.2-1-0.5-1.3-0.9c-0.5-0.6-0.8-1.4-0.7-2.4c0-0.8,0.2-1.4,0.7-1.9
		c0.4-0.5,1-0.9,1.7-1.1c-0.5-0.2-0.9-0.5-1.1-0.9c-0.3-0.4-0.4-1-0.5-1.6L36,72.1c0-0.7-0.2-1.2-0.3-1.6l2.7,0.1
		c0.2,0.4,0.3,0.9,0.3,1.6l0.1,1.6c0,0.5,0.1,0.9,0.2,1.1c0.1,0.3,0.2,0.5,0.4,0.7s0.4,0.3,0.6,0.4c0.3,0.1,0.6,0.1,1,0.2l2.2,0.1
		l0.2-5.4L46,71l-0.5,13L39.6,83.8z M40.2,78c-0.4,0-0.8,0-1,0.1c-0.3,0.1-0.5,0.2-0.7,0.4c-0.3,0.3-0.5,0.8-0.5,1.4
		c0,0.5,0.1,1,0.3,1.3c0.2,0.2,0.4,0.4,0.7,0.5s0.6,0.2,1.1,0.2l2.8,0.1l0.1-3.9L40.2,78z"/>
	<path class="st0" d="M33.4,70.5c0.4,0.6,0.5,1.3,0.5,2s-0.2,1.6-0.6,2.5L30,82.4l-2.4-1.1l3.4-7.5c0.5-1.1,0.6-2,0.3-2.7
		c-0.3-0.6-0.8-1.1-1.6-1.4c-0.8-0.4-1.6-0.4-2.2-0.2c-0.7,0.3-1.2,0.9-1.7,2L22.5,79l-2.4-1l3.3-7.4c0.8-1.7,1.8-2.7,3.3-3.1
		c1.2-0.3,2.4-0.1,3.9,0.6C31.9,68.7,32.9,69.5,33.4,70.5z"/>
	<path class="st0" d="M20.7,61.2l-5.9,9.7l8.2-6.8l1.5,1.9l-10.1,8.3L11.8,71l5.1-8.4L7.7,66l-2.5-3l10.1-8.3l1.5,1.8l-8.3,6.8
		l10.7-3.9L20.7,61.2z"/>
</g>
</svg>
